<svg width="140" height="140" viewBox="0 0 140 140" fill="none" xmlns="http://www.w3.org/2000/svg">
    <circle cx="70" cy="70" r="70" fill="#F1BE3F" />
    <circle cx="70" cy="70" r="60" fill="#C88003" />
    <path
        d="M67.1808 114.033C39.0758 107.448 28.2054 97.6686 20.5307 67.1751C48.6132 71.955 60.7278 86.2153 67.1808 114.033Z"
        fill="#F1BE3F" />
    <path
        d="M67.1804 114.033C39.0755 107.448 28.205 97.6688 20.5303 67.1753M67.1808 114.033C39.0758 107.448 28.2054 97.6686 20.5307 67.1751C48.6132 71.955 60.7278 86.2153 67.1808 114.033Z"
        stroke="#F1BE3F" />
    <path
        d="M119.998 66.4997C91.8932 73.0846 81.0227 82.8636 73.3481 113.357C101.431 108.577 113.545 94.317 119.998 66.4997Z"
        fill="#F1BE3F" />
    <path
        d="M119.998 66.4994C91.8929 73.0844 81.0224 82.8634 73.3477 113.357M119.998 66.4997C91.8932 73.0846 81.0227 82.8636 73.3481 113.357C101.431 108.577 113.545 94.317 119.998 66.4997Z"
        stroke="#F1BE3F" />
    <path
        d="M99.5 69V51C76.966 66.6667 69.4284 78.6185 70.5 105C76.8159 87.2557 82.5843 78.9457 99.5 69Z"
        fill="#F1BE3F" stroke="#F1BE3F" />
    <path
        d="M40.5 69L41 52C61.4782 64.5655 68.3011 74.3943 66.9119 97C61.0286 83.7677 55.4937 78.9854 40.5 69Z"
        fill="#F1BE3F" stroke="#F1BE3F" />
    <path
        d="M61.1439 57.4728C64.6369 49.7927 66.4973 46.3855 69.6976 41.2492L78.1967 57.4728L69.6967 71.7492L61.1439 57.4728Z"
        fill="#F1BE3F" stroke="#F1BE3F" />
</svg>
    