<svg width="90" height="90" viewBox="0 0 90 90" fill="none" xmlns="http://www.w3.org/2000/svg">
<circle cx="45" cy="45" r="45" fill="#F1BE3F"/>
<circle cx="45" cy="45" r="40" fill="#C88003"/>
<g clip-path="url(#clip0_140_14)">
<path d="M40.3725 41.2879C39.4735 42.7995 25.4498 43.0535 17.7992 38.7659C10.1486 34.4783 13.8656 21.3686 21.6255 17.9261C29.3855 14.4837 41.2715 39.7765 40.3725 41.2879Z" fill="#F1BE3F"/>
<path d="M40.266 46.5339C41.165 48.0455 34.38 59.9611 26.7293 64.2487C19.0787 68.5363 9.24101 58.8569 10.0497 50.6125C10.8585 42.3679 39.367 45.0223 40.266 46.5339Z" fill="#F1BE3F"/>
<path d="M44.8938 49.2471C46.692 49.2471 53.9302 60.9089 53.9302 69.4841C53.9302 78.0591 40.3756 81.4895 33.4244 76.6873C26.4731 71.8853 43.0958 49.2469 44.8938 49.2471Z" fill="#F1BE3F"/>
<path d="M49.6283 46.7132C50.5273 45.2014 64.5511 44.9476 72.2015 49.2352C79.8521 53.5228 76.1353 66.6324 68.3753 70.0748C60.6151 73.5172 48.7293 48.2246 49.6283 46.7132Z" fill="#F1BE3F"/>
<path d="M49.7346 41.4656C48.8356 39.954 55.6206 28.0383 63.2712 23.7506C70.922 19.463 80.7596 29.1426 79.951 37.387C79.1422 45.6316 50.6336 42.9772 49.7346 41.4656Z" fill="#F1BE3F"/>
<path d="M45.1057 38.7528C43.3075 38.7528 36.0693 27.091 36.0693 18.5158C36.0693 9.9406 49.6239 6.51037 56.5751 11.3125C63.5265 16.1146 46.9037 38.753 45.1057 38.7528Z" fill="#F1BE3F"/>
</g>
<defs>
<clipPath id="clip0_140_14">
<rect width="70" height="70" fill="white" transform="translate(10 9)"/>
</clipPath>
</defs>
</svg>
